<svg xmlns="http://www.w3.org/2000/svg" width="120" height="56" fill="none">
	<path fill="#2EC966" d="m21.45 18.316 7.617-2.467a.59.59 0 0 0 .456-.577.585.585 0 0 0-.327-.53l-.164-.048-7.665-2.491-3.323-1.034a6.34 6.34 0 0 0-.831-.145c-.152-.012-.293-.024-.48-.024h-.059l-.081.012c-.351.012-.69.048-1.007.132l-3.522 1.072-6.834 2.478c-.035.012-.082.024-.117.036a.598.598 0 0 0-.351.542c0 .216.117.409.292.505l.187.072 6.882 2.48 3.71 1.13.222.036c.198.037.397.049.655.049.41 0 .819-.049 1.217-.169l.491-.132 3.031-.927Z" />
	<path fill="#3AA4FF" d="M32.885 19.26c-.61-.436-.98-.666-1.723-.666a3.47 3.47 0 0 0-1.017.15l-9.56 2.87c-1.485.424-2.49 1.71-2.49 3.201v16.06c0 1.124.563 2.135 1.532 2.766.969.631 2.154.758 3.243.344l9.56-3.8c1.341-.516 1.855-1.733 1.855-3.11V21.946c0-1.068-.514-2.043-1.4-2.686" />
	<path fill="#FF4C59" d="M13.566 21.393 2.65 17.74a2.47 2.47 0 0 0-.659-.094c-.494 0-.636.165-1.048.472-.6.447-.942 1.13-.942 1.874v16.833c0 .955.224 1.804 1.107 2.17l10.916 5.057c.73.294 1.52.212 2.179-.225a2.304 2.304 0 0 0 1.036-1.944V23.633c0-1.025-.683-1.956-1.672-2.24" />
	<path fill="#000" d="M84.789 15.746h-.022c-.516 0-.988.186-1.35.537-.351.35-.55.82-.56 1.335-.011 1.083.801 1.904 1.877 1.926.505 0 1-.186 1.361-.537.351-.35.56-.831.571-1.346a1.853 1.853 0 0 0-.527-1.356 1.886 1.886 0 0 0-1.35-.559ZM66.653 40.163l-.894-2.177a4454.105 4454.105 0 0 0-8.483-20.773c-.084-.203-.484-.44-.762-.464-.555-.036-1.123-.024-1.68-.024-.555.012-1.147.012-1.715-.024-.653-.047-.882.214-1.1.774-2.199 5.437-4.447 10.957-6.622 16.3l-2.368 5.817a3.94 3.94 0 0 0-.158.405c-.024.095-.024.202.049.285a.34.34 0 0 0 .266.131l.531-.012h1.088c.544 0 1.087.012 1.62.024.446.024.664-.13.82-.559.279-.773.58-1.535.883-2.308.278-.714.556-1.44.822-2.154.266-.713.64-.892 1.813-.832l7.818-.013c1.063-.059 1.62.06 1.897.822.665 1.784 1.185 3.164 1.74 4.437.109.262.46.548.69.56.942.06 1.884.047 2.875.035l.701-.012c.06 0 .12-.035.157-.083a.17.17 0 0 0 .012-.155ZM50.75 30.872l3.988-10.22 3.964 10.22H50.75Zm60.409-7.763c-2.553 0-4.848.877-6.452 2.47-1.581 1.559-2.459 3.764-2.459 6.2a9.55 9.55 0 0 0 .445 2.84l.023.082-.058.069c-.644.68-1.089 1.097-1.487 1.397l-.106.058c-.304.173-.609.346-.937.462a5.305 5.305 0 0 1-1.592.334c-.937.058-1.733-.173-2.26-.635-.421-.38-.667-.912-.702-1.535-.082-1.836-.07-3.649-.047-5.566 0-.796.011-1.593.011-2.413v-.15h4.509a.392.392 0 0 0 .398-.392v-2.483a.337.337 0 0 0-.34-.334h-4.672v-4.515a.405.405 0 0 0-.41-.404h-2.88a.34.34 0 0 0-.34.347v4.618H88.97a.392.392 0 0 0-.398.393v2.366a.44.44 0 0 0 .433.44h2.822v2.55c-.011 1.837-.011 3.568.012 5.323.012 1.975.644 3.43 1.886 4.469 2.166 1.8 6.686 1.766 8.946-.081.538-.347 1.054-.762 1.639-1.317l.105-.115.106.115c1.639 1.732 3.981 2.69 6.604 2.69a10 10 0 0 0 3.571-.634 8.24 8.24 0 0 0 2.858-1.813c1.604-1.582 2.447-3.73 2.447-6.235 0-5.057-3.642-8.59-8.841-8.601Zm-.012 13.935c-3.044 0-5.093-2.124-5.105-5.276-.012-3.117 2.072-5.311 5.059-5.334 1.451-.012 2.704.462 3.653 1.385.972.97 1.522 2.379 1.51 3.96-.011 3.14-2.061 5.254-5.117 5.265ZM86.262 23.46l-5.96-.024c-.118-.024-.213-.024-.296-.024l-2.624-.024c-.226-.012-.475 0-.641.107l-.047.024c-.131.107-.19.238-.25.405a.262.262 0 0 1-.023.072c-1.022 2.691-2.019 5.36-3.04 8.04l-1.698 4.489-.332-.893c-1.448-3.788-2.897-7.575-4.345-11.374-.119-.298-.238-.608-.499-.762-.226-.132-.546-.12-.867-.12-.249 0-.486-.012-.724-.012-.285 0-.57-.011-.878 0-.071 0-.143-.011-.214-.011-.107-.013-.214-.013-.309-.013-.344 0-.617.048-.653.263-.023.143.036.286.095.464.784 2.037 1.627 4.085 2.434 6.074 1.164 2.859 2.374 5.824 3.431 8.778l.024.06c.166.476.344.964.724 1.214.285.19.76.203 1.294.215l.19.012c.617.023 1.354-.012 1.864-.036.309-.012.665-.048.902-.226.19-.155.297-.405.404-.655l5.093-12.744.119-.024 3.74.047V39.92c0 .227.19.417.415.417h2.66c.225 0 .415-.19.415-.417V23.876a.404.404 0 0 0-.404-.416" />
</svg>
